<svg xmlns="http://www.w3.org/2000/svg" width="64" height="64"><defs><linearGradient id="a"><stop offset="0" stop-color="#ffdbc2"/><stop offset="1" stop-color="#fff"/></linearGradient><linearGradient id="b"><stop offset="0" stop-color="#fff"/><stop offset="1" stop-color="#ffaa6e"/></linearGradient><linearGradient id="c"><stop offset="0" stop-color="#ff2929"/><stop offset=".5" stop-color="#f00000"/><stop offset="1" stop-color="#820000"/></linearGradient><linearGradient id="d"><stop offset="0" stop-color="#fff" stop-opacity=".771"/><stop offset="1" stop-color="#fff" stop-opacity=".157"/></linearGradient></defs><path d="M44.268 12.869S46.504 2.734 47.236 1.27c.732-1.463 2.066-1.664 2.212-.859.146.806-1.943 9-2.437 9.714-.494.714.638 1.922 1.224 1.483.584-.439 3.55-8.377 4.574-9.145 1.024-.768 2.486-.035 2.486-.035s.822 1.555.054 2.36c-.769.805-3.477 6.95-5.123 7.498-1.645.548.657 1.794.657 1.794s4.72-5.596 6.657-6.363c1.938-.767 4.094-.327 3.308.606-.787.933.473 2.16-.623 2.525-1.097.365-6.29 4.716-6.967 4.88-.676.164-.11 1.683.657 1.794.768.11 6.363-5.23 7.515-5.064 1.151.166 2.576.24 2.448 1.137-.13.896-.696 2.122-2.232 2.816-1.535.694-7.385 2.337-8.518 2.958-1.134.622-9.153-5.366-8.86-6.5z" fill="#4cd600"/><path d="M367.137 604.92s-1.55-.1-2.102.864c-.55.963-3.403 5.89-3.224 7.009.18 1.119 1.543-.002 1.543-.002s4.886-5.271 5.13-6.213c.244-.943-.712-1.392-1.347-1.657z" fill="#ffa000" stroke="#e9621f" stroke-width=".406" transform="matrix(6.50417 1.39252 -1.39097 6.51142 -1499.653 -4435.396)"/><path d="M365.16 606.471s1.639-.893 2.41.772M364.578 607.708s1.476-.582 2.14.718M363.942 608.886s1.164-.556 1.841.555M363.373 610.104s1.124-.541 1.476.501M362.676 611.247s.866-.393 1.259.406" fill="none" stroke="#f66000" stroke-width=".283" transform="matrix(6.50417 1.39252 -1.39097 6.51142 -1499.653 -4435.396)"/></svg>