<?xml version="1.0" encoding="UTF-8" standalone="no"?>
<!-- Created with Inkscape (http://www.inkscape.org/) -->

<svg
   xmlns:dc="http://purl.org/dc/elements/1.1/"
   xmlns:cc="http://creativecommons.org/ns#"
   xmlns:rdf="http://www.w3.org/1999/02/22-rdf-syntax-ns#"
   xmlns:svg="http://www.w3.org/2000/svg"
   xmlns="http://www.w3.org/2000/svg"
   xmlns:xlink="http://www.w3.org/1999/xlink"
   xmlns:sodipodi="http://sodipodi.sourceforge.net/DTD/sodipodi-0.dtd"
   xmlns:inkscape="http://www.inkscape.org/namespaces/inkscape"
   width="64"
   height="64"
   id="svg2"
   version="1.1"
   inkscape:version="0.48.4 r9939"
   sodipodi:docname="palomaironique-easter_carrot_powerup.svg">
  <defs
     id="defs4">
    <linearGradient
       inkscape:collect="always"
       xlink:href="#linearGradient4865-7-8-6"
       id="linearGradient4464"
       gradientUnits="userSpaceOnUse"
       gradientTransform="matrix(4.7665704,-0.57594828,0.57973124,4.7978783,7.1947806,276.52684)"
       x1="-10.614571"
       y1="15.853858"
       x2="-6.8865299"
       y2="8.0270262" />
    <linearGradient
       inkscape:collect="always"
       id="linearGradient4865-7-8-6">
      <stop
         style="stop-color:#ffdbc2;stop-opacity:1;"
         offset="0"
         id="stop4867-4-8-3" />
      <stop
         style="stop-color:#ffffff;stop-opacity:1"
         offset="1"
         id="stop4869-0-9-2" />
    </linearGradient>
    <linearGradient
       inkscape:collect="always"
       xlink:href="#linearGradient4294-4-8-8"
       id="linearGradient4466"
       gradientUnits="userSpaceOnUse"
       gradientTransform="matrix(4.7665704,-0.57594828,0.57973124,4.7978783,-78.476485,294.83529)"
       x1="-12.233939"
       y1="10"
       x2="-4.5"
       y2="19.5" />
    <linearGradient
       id="linearGradient4294-4-8-8"
       inkscape:collect="always">
      <stop
         id="stop4296-8-3-4"
         offset="0"
         style="stop-color:#ffffff;stop-opacity:1" />
      <stop
         id="stop4298-8-9-3"
         offset="1"
         style="stop-color:#ffaa6e;stop-opacity:1" />
    </linearGradient>
    <linearGradient
       inkscape:collect="always"
       xlink:href="#linearGradient2776-87"
       id="linearGradient4468"
       gradientUnits="userSpaceOnUse"
       x1="273.75134"
       y1="436.16913"
       x2="578.81738"
       y2="691.73773" />
    <linearGradient
       id="linearGradient2776-87">
      <stop
         style="stop-color:#ff2929;stop-opacity:1.0000000;"
         offset="0.00000000"
         id="stop2778-1" />
      <stop
         style="stop-color:#f00000;stop-opacity:1.0000000;"
         offset="0.50000000"
         id="stop4262-0" />
      <stop
         style="stop-color:#820000;stop-opacity:1.0000000;"
         offset="1.0000000"
         id="stop2780-86" />
    </linearGradient>
    <linearGradient
       inkscape:collect="always"
       xlink:href="#linearGradient3518-3"
       id="linearGradient4470"
       gradientUnits="userSpaceOnUse"
       x1="250"
       y1="355.21933"
       x2="260"
       y2="402.53622" />
    <linearGradient
       id="linearGradient3518-3">
      <stop
         style="stop-color:#ffffff;stop-opacity:0.77124184;"
         offset="0.00000000"
         id="stop3520-22" />
      <stop
         style="stop-color:#ffffff;stop-opacity:0.15686275;"
         offset="1.0000000"
         id="stop3522-2" />
    </linearGradient>
    <linearGradient
       inkscape:collect="always"
       xlink:href="#linearGradient3518-3"
       id="linearGradient4472"
       gradientUnits="userSpaceOnUse"
       gradientTransform="translate(292.8571,-6.428571)"
       x1="250"
       y1="355.21933"
       x2="260"
       y2="402.53622" />
    <linearGradient
       id="linearGradient4502">
      <stop
         style="stop-color:#ffffff;stop-opacity:0.77124184;"
         offset="0.00000000"
         id="stop4504" />
      <stop
         style="stop-color:#ffffff;stop-opacity:0.15686275;"
         offset="1.0000000"
         id="stop4506" />
    </linearGradient>
  </defs>
  <sodipodi:namedview
     id="base"
     pagecolor="#ffffff"
     bordercolor="#666666"
     borderopacity="1.0"
     inkscape:pageopacity="0.0"
     inkscape:pageshadow="2"
     inkscape:zoom="1"
     inkscape:cx="-5.9018898"
     inkscape:cy="19.819632"
     inkscape:document-units="px"
     inkscape:current-layer="g4083"
     showgrid="false"
     fit-margin-top="0"
     fit-margin-left="0"
     fit-margin-right="0"
     fit-margin-bottom="0"
     inkscape:window-width="960"
     inkscape:window-height="1181"
     inkscape:window-x="376"
     inkscape:window-y="-34"
     inkscape:window-maximized="0" />
  <metadata
     id="metadata7">
    <rdf:RDF>
      <cc:Work
         rdf:about="">
        <dc:format>image/svg+xml</dc:format>
        <dc:type
           rdf:resource="http://purl.org/dc/dcmitype/StillImage" />
        <dc:title />
      </cc:Work>
    </rdf:RDF>
  </metadata>
  <g
     inkscape:label="Calque 1"
     inkscape:groupmode="layer"
     id="layer1"
     transform="translate(-255.29532,-587.44029)">
    <g
       id="g4083"
       transform="matrix(6.5041651,1.39252,-1.3909687,6.5114188,-1244.3581,-3847.9555)">
      <g
         id="g3779">
        <path
           style="fill:#4cd600;fill-opacity:1;stroke:none"
           d="m 366.69997,604.72653 c 0,0 0.0105,-1.5587 0.0721,-1.7966 0.0617,-0.23791 0.25154,-0.3093 0.29824,-0.19564 0.0467,0.11367 -0.003,1.38292 -0.0532,1.5032 -0.0502,0.12028 0.15421,0.26212 0.22646,0.17928 0.0722,-0.0828 0.25896,-1.34195 0.38539,-1.4869 0.12644,-0.14496 0.36435,-0.0833 0.36435,-0.0833 0,0 0.16963,0.20265 0.082,0.34497 -0.0877,0.14229 -0.29289,1.13004 -0.51758,1.26223 -0.22468,0.13218 0.15289,0.24274 0.15289,0.24274 0,0 0.51804,-0.97015 0.77885,-1.14375 0.2608,-0.1736 0.59166,-0.17671 0.50533,-0.015 -0.0863,0.1617 0.13747,0.30222 -0.0123,0.39034 -0.14979,0.0881 -0.77666,0.89042 -0.87093,0.93581 -0.0943,0.0454 0.0366,0.25066 0.15289,0.24273 0.11631,-0.008 0.77136,-0.96796 0.94583,-0.97987 0.17446,-0.0119 0.38636,-0.0458 0.39563,0.0899 0.009,0.13569 -0.0357,0.33351 -0.23964,0.48376 -0.20397,0.15024 -1.01237,0.57543 -1.15952,0.70232 -0.14714,0.12689 -1.51425,-0.50037 -1.50677,-0.67615 z"
           id="path4018"
           inkscape:connector-curvature="0" />
        <path
           style="fill:#ffa000;fill-opacity:1;stroke:#e9621f;stroke-width:0.40635544px;stroke-linecap:butt;stroke-linejoin:miter;stroke-opacity:1"
           d="m 367.13662,604.92047 c 0,0 -1.54971,-0.1 -2.10112,0.86342 -0.55142,0.96336 -3.40387,5.88952 -3.22462,7.00873 0.17925,1.11921 1.54273,-0.002 1.54273,-0.002 0,0 4.88612,-5.27068 5.13038,-6.21307 0.24427,-0.9424 -0.71211,-1.39141 -1.34737,-1.65664 z"
           id="path4016"
           inkscape:connector-curvature="0" />
        <path
           style="fill:none;stroke:#f66000;stroke-width:0.28318426px;stroke-linecap:butt;stroke-linejoin:miter;stroke-opacity:1"
           d="m 365.16018,606.47139 c 0,0 1.63841,-0.89367 2.4102,0.77178"
           id="path4020"
           inkscape:connector-curvature="0"
           sodipodi:nodetypes="cc" />
        <path
           style="fill:none;stroke:#f66000;stroke-width:0.28318426px;stroke-linecap:butt;stroke-linejoin:miter;stroke-opacity:1"
           d="m 364.57795,607.70819 c 0,0 1.4759,-0.58224 2.13938,0.71763"
           id="path4020-9"
           inkscape:connector-curvature="0"
           sodipodi:nodetypes="cc" />
        <path
           style="fill:none;stroke:#f66000;stroke-width:0.28318426px;stroke-linecap:butt;stroke-linejoin:miter;stroke-opacity:1"
           d="m 363.94155,608.88562 c 0,0 1.16447,-0.55515 1.8415,0.55515"
           id="path4020-9-6"
           inkscape:connector-curvature="0"
           sodipodi:nodetypes="cc" />
        <path
           style="fill:none;stroke:#f66000;stroke-width:0.28318426px;stroke-linecap:butt;stroke-linejoin:miter;stroke-opacity:1"
           d="m 363.37285,610.10425 c 0,0 1.12385,-0.54161 1.47589,0.50099"
           id="path4020-9-69"
           inkscape:connector-curvature="0"
           sodipodi:nodetypes="cc" />
        <path
           style="fill:none;stroke:#f66000;stroke-width:0.28318426px;stroke-linecap:butt;stroke-linejoin:miter;stroke-opacity:1"
           d="m 362.67551,611.24694 c 0,0 0.86658,-0.39267 1.25926,0.40622"
           id="path4020-9-69-5"
           inkscape:connector-curvature="0"
           sodipodi:nodetypes="cc" />
      </g>
    </g>
  </g>
</svg>
